<mxfile host="app.diagrams.net" modified="2024-05-23T14:09:22.907Z" agent="Mozilla/5.0 (Windows NT 10.0; Win64; x64) AppleWebKit/537.36 (KHTML, like Gecko) Chrome/124.0.0.0 Safari/537.36" version="24.4.6" etag="_w-PJGjfBjolZclWWdGl" type="github">
  <diagram name="Page-1" id="9xhQe13s3F91w9SJBuas">
    <mxGraphModel>
      <root>
        <mxCell id="0" />
        <mxCell id="1" parent="0" />
      </root>
    </mxGraphModel>
  </diagram>
</mxfile>
